<svg width="20" height="20" viewBox="0 0 20 20" fill="none" xmlns="http://www.w3.org/2000/svg">
<g clip-path="url(#clip0)">
<path d="M10.3704 20H20V10.3704H10.3704V20ZM12.5926 13.7037H17.7778C17.9823 13.7037 18.1481 13.8695 18.1481 14.0741C18.1481 14.2786 17.9823 14.4444 17.7778 14.4444H12.5926C12.388 14.4444 12.2222 14.2786 12.2222 14.0741C12.2222 13.8695 12.388 13.7037 12.5926 13.7037ZM12.5926 15.9259H17.7778C17.9823 15.9259 18.1481 16.0918 18.1481 16.2963C18.1481 16.5008 17.9823 16.6667 17.7778 16.6667H12.5926C12.388 16.6667 12.2222 16.5008 12.2222 16.2963C12.2222 16.0918 12.388 15.9259 12.5926 15.9259Z" fill="#1B1F2A"/>
<path d="M0 20H9.62963V10.3704H0V20ZM2.71955 13.6136C2.62334 13.5207 2.58482 13.3831 2.61863 13.2536C2.65245 13.1241 2.75373 13.0228 2.88321 12.989C3.0127 12.9552 3.15032 12.9937 3.24327 13.0899L4.81482 14.6614L6.38636 13.0899C6.47931 12.9937 6.61693 12.9552 6.74642 12.989C6.8759 13.0228 6.97718 13.1241 7.011 13.2536C7.04481 13.3831 7.00629 13.5207 6.91008 13.6136L5.33854 15.1852L6.91008 16.7567C7.00629 16.8497 7.04481 16.9873 7.011 17.1168C6.97718 17.2463 6.8759 17.3475 6.74642 17.3814C6.61693 17.4152 6.47931 17.3767 6.38636 17.2804L4.81482 15.7089L3.24327 17.2804C3.15032 17.3767 3.0127 17.4152 2.88321 17.3814C2.75373 17.3475 2.65245 17.2463 2.61863 17.1168C2.58482 16.9873 2.62334 16.8497 2.71955 16.7567L4.29109 15.1852L2.71955 13.6136Z" fill="#1B1F2A"/>
<path d="M20 0H10.3704V9.62963H20V0ZM17.7778 5.18519H12.5926C12.388 5.18519 12.2222 5.01935 12.2222 4.81482C12.2222 4.61028 12.388 4.44444 12.5926 4.44444H17.7778C17.9823 4.44444 18.1481 4.61028 18.1481 4.81482C18.1481 5.01935 17.9823 5.18519 17.7778 5.18519Z" fill="#1B1F2A"/>
<path d="M9.62963 0H0V9.62963H9.62963V0ZM7.40741 5.18519H5.18519V7.40741C5.18519 7.61194 5.01935 7.77778 4.81482 7.77778C4.61028 7.77778 4.44444 7.61194 4.44444 7.40741V5.18519H2.22222C2.01769 5.18519 1.85185 5.01935 1.85185 4.81482C1.85185 4.61028 2.01769 4.44444 2.22222 4.44444H4.44444V2.22222C4.44444 2.01769 4.61028 1.85185 4.81482 1.85185C5.01935 1.85185 5.18519 2.01769 5.18519 2.22222V4.44444H7.40741C7.61194 4.44444 7.77778 4.61028 7.77778 4.81482C7.77778 5.01935 7.61194 5.18519 7.40741 5.18519Z" fill="#1B1F2A"/>
</g>
<defs>
<clipPath id="clip0">
<rect width="20" height="20" fill="white"/>
</clipPath>
</defs>
</svg>
