<svg width="64" height="64" viewBox="0 0 64 64" fill="none" xmlns="http://www.w3.org/2000/svg">
<path d="M45.2441 43.7336L42.0511 42.0463C39.5473 40.5207 36.2809 41.3136 34.7553 43.8172C34.7199 43.8751 34.6857 43.9339 34.6526 43.9932L33.1989 46.1738C26.3752 41.4949 20.4853 35.583 15.8319 28.742L18.0125 27.3012C19.583 26.2369 21.9064 23.8096 19.7907 19.6301L18.2721 16.7097C16.0266 12.5562 12.7167 13.0624 10.9385 13.7503L3.52703 16.6837C1.97952 17.1979 0.763309 18.4091 0.243143 19.9546C-0.263556 22.0653 0.0276784 24.2889 1.06087 26.1979C8.65276 41.1975 20.8414 53.3771 35.8467 60.9578C37.1523 61.6373 38.5941 62.0144 40.0652 62.0611C42.3448 62.0736 44.4016 60.6955 45.2571 58.5825V58.4917L48.2035 51.0542C48.8785 49.276 49.3847 45.9662 45.2441 43.7336ZM46.4383 50.3533L43.5567 57.7129C43.1646 58.6619 42.4135 59.4176 41.467 59.8156C39.8637 60.2508 38.1521 60.0116 36.7294 59.1536C22.0787 51.7548 10.1769 39.8665 2.76122 25.2244C1.99282 23.7761 1.75837 22.1036 2.09925 20.4998C2.4463 19.5145 3.24148 18.753 4.24092 18.449L11.6524 15.5155C12.1766 15.3032 12.7354 15.1888 13.3008 15.1781C14.7627 15.2814 16.0352 16.2155 16.5717 17.5793L18.0644 20.4998C18.7783 21.9016 19.4403 23.9784 16.9352 25.6917L13.9368 27.6776C13.5197 27.9719 13.4008 28.5383 13.6643 28.9756C18.7437 36.6731 25.3264 43.2647 33.0171 48.3545C33.4544 48.6179 34.0208 48.499 34.3151 48.0819L36.301 45.0835C37.1236 43.419 39.1397 42.7365 40.8042 43.5589C40.9392 43.6256 41.0695 43.7014 41.1944 43.7856L44.3615 45.447C45.7633 46.1998 47.5026 47.5367 46.4383 50.3533Z" fill="#CACACA"/>
<path d="M56.0949 13.4908C55.4848 7.00085 48.7613 1.93872 40.5191 1.93872C31.9135 1.93872 24.9434 7.546 24.9434 14.4383C25.0381 18.1625 26.9291 21.6108 30.0185 23.6929V31.3899C30.0185 31.9276 30.4543 32.3634 30.9918 32.3636C31.2373 32.3636 31.4738 32.2708 31.6539 32.1038L37.5338 26.7302C38.001 26.808 38.4553 26.86 38.9226 26.8989C40.8436 30.9097 45.6072 33.5575 51.0198 33.5575C51.8323 33.5582 52.6437 33.4973 53.447 33.3758L58.2106 37.737C58.6048 38.1026 59.2207 38.0794 59.5863 37.6853C59.7532 37.5052 59.846 37.2688 59.846 37.0231V30.7928C62.3862 29.043 63.9313 26.1797 63.9996 23.0958C63.9996 18.9033 60.8455 15.1132 56.0949 13.4908ZM40.3504 25.0038C39.3577 25.0024 38.3672 24.9112 37.391 24.7313C37.0928 24.6733 36.7847 24.76 36.5603 24.9649L31.9654 29.1704V23.1867C31.9648 22.864 31.8045 22.5627 31.5371 22.3819C28.7628 20.6847 27.0195 17.7141 26.8903 14.4642C26.8903 8.64928 33.0168 3.91165 40.5451 3.91165C48.0734 3.91165 54.1998 8.64928 54.1998 14.4642C54.1941 15.0762 54.1202 15.6858 53.9792 16.2814C53.3849 18.3504 52.1982 20.2002 50.5655 21.6031C47.6559 23.8834 44.0461 25.0851 40.3504 25.0038ZM58.3144 29.4429C58.047 29.6237 57.8867 29.925 57.8861 30.2477V34.7776L54.4075 31.5976C54.2274 31.4306 53.991 31.338 53.7455 31.338H53.5638C52.7075 31.4955 51.8385 31.5737 50.9679 31.5716C47.1546 31.7092 43.5077 30.0042 41.1681 26.9898C45.1248 26.8445 48.9297 25.4293 52.0192 22.953C53.9602 21.2845 55.3232 19.0447 55.9132 16.554C55.9132 16.2814 56.03 16.0348 56.0559 15.8012V15.6454C59.7033 17.0342 62.0526 19.9417 62.0526 23.0958C61.9491 25.7043 60.5455 28.0875 58.3144 29.4429Z" fill="#CACACA"/>
</svg>
