<svg width="54" height="53" viewBox="0 0 54 53" fill="none" xmlns="http://www.w3.org/2000/svg">
<path d="M53.4088 0.153989C53.0433 -0.0546044 52.5938 -0.0510888 52.2317 0.16313L30.7566 12.862C30.1995 13.1915 30.0149 13.91 30.3444 14.4672C30.6737 15.0241 31.3922 15.2087 31.9495 14.8794L47.3575 5.76821L18.6576 35.5471L4.38322 31.18L23.0119 20.1643C23.569 19.8348 23.7536 19.1162 23.4242 18.5591C23.0949 18.0021 22.3762 17.8173 21.8191 18.1468L0.903577 30.5147C0.503967 30.7511 0.281428 31.2009 0.336389 31.6621C0.39135 32.1232 0.713264 32.5083 1.15717 32.6441L18.2043 37.8594L25.7251 51.5484C25.7329 51.5626 25.741 51.5746 25.7493 51.5852C25.8748 51.7945 26.0629 51.9655 26.2975 52.0642C26.4444 52.1259 26.5987 52.1561 26.752 52.1561C27.0523 52.1561 27.348 52.0405 27.5712 51.8222L36.219 43.3706L52.4853 48.3471C52.5978 48.3815 52.7132 48.3984 52.8281 48.3984C53.076 48.3984 53.321 48.3197 53.5251 48.1686C53.8238 47.9476 54.0001 47.5981 54.0001 47.2266V1.17188C54.0001 0.75106 53.7744 0.362466 53.4088 0.153989ZM25.7889 38.5816C25.6532 38.7777 25.5804 39.0104 25.5804 39.2489V46.4174L20.4449 37.0699L43.1701 13.4906L25.7889 38.5816ZM27.9242 48.2003V40.833L33.6652 42.5895L27.9242 48.2003ZM51.6563 45.6425L28.6291 38.5977L51.6563 5.35594V45.6425Z" fill="#CACACA"/>
</svg>
