<svg width="62" height="62" viewBox="0 0 62 62" fill="none" xmlns="http://www.w3.org/2000/svg">
<path d="M61.9201 60.5684L51.5868 35.7685C51.4264 35.3835 51.0505 35.1332 50.6332 35.1332H34.0999V25.5346L57.1733 17.5086C57.588 17.3638 57.8655 16.9722 57.8655 16.5333C57.8655 16.0938 57.588 15.7028 57.1733 15.5575L34.0999 7.53201V6.86751C35.5656 5.2055 35.4602 2.68373 33.8613 1.15039C32.2618 -0.383462 29.738 -0.383462 28.1391 1.15039C26.5402 2.68373 26.4347 5.2055 27.8999 6.86751V35.1332H11.3666C10.9499 35.1332 10.5735 35.3835 10.413 35.7685L0.0797284 60.5684C-0.0534744 60.8873 -0.0181555 61.2516 0.173576 61.5392C0.365307 61.8268 0.687718 61.9998 1.03334 61.9998H60.9665C61.3121 61.9998 61.635 61.8268 61.8268 61.5392C62.018 61.2516 62.0533 60.8873 61.9201 60.5684ZM34.0999 9.71926L53.6878 16.5333L34.0999 23.3468V9.71926ZM47.4298 40.7595C47.9712 39.6551 48.117 38.3987 47.8435 37.1999H49.947L56.5748 53.1131C55.537 54.1363 54.1494 54.7272 52.6928 54.7665H52.6565C50.5353 54.7125 48.6074 53.5187 47.6139 51.6438C48.2214 50.7311 48.5524 49.6624 48.5665 48.5665C48.5665 46.4852 47.341 44.5765 45.2269 43.0371C46.1785 42.5235 46.9479 41.7278 47.4298 40.7595ZM34.0999 37.1999H45.7138C46.015 38.0637 45.9656 39.0118 45.575 39.8397C45.0387 40.8362 44.0634 41.5204 42.9443 41.6864C40.1541 40.4109 37.1595 39.6414 34.0999 39.4144V37.1999ZM30.9999 2.06666C32.1412 2.06666 33.0666 2.99202 33.0666 4.13332C33.0716 4.71608 32.8244 5.27261 32.388 5.6596C32.1629 5.85537 32.0338 6.13893 32.0333 6.43763V47.5332H29.9666V6.43763C29.9666 6.13893 29.8374 5.85537 29.6124 5.6596C29.176 5.27261 28.9282 4.71608 28.9333 4.13332C28.9333 2.99202 29.8586 2.06666 30.9999 2.06666ZM12.0559 37.1999H27.8999V39.4144C24.7888 39.6399 21.7454 40.4306 18.9173 41.7464C17.1877 42.0219 15.4177 41.8958 13.7446 41.3776C12.732 41.0547 11.7708 40.5885 10.8903 39.9926L12.0559 37.1999ZM2.58333 59.9332L10.081 41.9377C11.792 43.0235 13.7345 43.6905 15.7512 43.8853C14.3511 45.0473 13.5085 46.7481 13.4333 48.5665C13.4636 49.9505 13.9782 51.2805 14.8874 52.3245C13.0736 52.379 11.3081 52.9219 9.77628 53.8951C7.61981 55.3003 6.05569 57.4492 5.38059 59.9332H2.58333ZM7.55069 59.9332C8.14606 58.1647 9.32319 56.6505 10.8903 55.6374C12.9318 54.3825 15.4056 54.041 17.7104 54.6959C20.9043 56.646 25.6269 57.8665 30.9999 57.8665C31.5706 57.8665 32.0333 57.4038 32.0333 56.8332C32.0333 56.2625 31.5706 55.7998 30.9999 55.7998C22.5981 55.7998 15.5 52.4869 15.5 48.5665C15.5 45.1875 20.8629 42.1723 27.8999 41.4811V43.5972C27.0614 43.6915 26.2288 43.8338 25.4064 44.024C24.8519 44.1582 24.5113 44.7168 24.6455 45.2718C24.7798 45.8263 25.3388 46.1669 25.8933 46.0326C26.5553 45.8737 27.2248 45.7506 27.8999 45.6638V48.5665C27.8999 49.1372 28.3626 49.5999 28.9333 49.5999H33.0666C33.6372 49.5999 34.0999 49.1372 34.0999 48.5665V45.6628C38.1525 46.1906 40.2999 47.6311 40.2999 48.5665C40.2999 49.8309 36.6772 51.6665 30.9999 51.6665C25.3227 51.6665 21.6999 49.8309 21.6999 48.5665C21.6999 48.0983 22.2489 47.5196 23.1682 47.0216C23.4997 46.8495 23.7126 46.5115 23.7247 46.1386C23.7368 45.7652 23.5466 45.4141 23.2272 45.2208C22.9079 45.0271 22.5088 45.021 22.1838 45.2052C20.0758 46.349 19.6333 47.6644 19.6333 48.5665C19.6333 51.9228 25.4892 53.7332 30.9999 53.7332C36.5107 53.7332 42.3666 51.9228 42.3666 48.5665C42.3666 45.7763 38.3553 44.1022 34.0999 43.5835V41.4811C41.137 42.1723 46.4999 45.1875 46.4999 48.5665C46.4999 51.9455 41.1269 54.9845 34.003 55.6591C33.4354 55.7136 33.0192 56.2176 33.0726 56.7852C33.0958 57.0592 33.228 57.3125 33.4405 57.4876C33.6524 57.6627 33.9258 57.7449 34.1993 57.7156C39.4618 57.2187 43.7349 55.5733 46.2148 53.2978C47.6467 55.4673 50.0575 56.7903 52.6565 56.8332H52.7074C54.4224 56.8029 56.0784 56.1979 57.4089 55.1147L59.4165 59.9332H7.55069Z" fill="#CACACA"/>
</svg>
