<svg width="13" height="14" viewBox="0 0 13 14" fill="none" xmlns="http://www.w3.org/2000/svg">
<path d="M1.80664 0.762817C0.983553 0.762817 0.317333 1.43024 0.3172 2.25146C0.3172 3.07348 0.98342 3.74077 1.80677 3.74077C2.62786 3.74077 3.29502 3.07348 3.29502 2.25146C3.29502 1.4301 2.62773 0.762817 1.80664 0.762817Z" fill="#18243A"/>
<path d="M3.09031 4.87067H0.521973V13.134H3.09031V4.87067Z" fill="#18243A"/>
<path d="M9.62867 4.66516C8.37932 4.66516 7.54159 5.35016 7.19869 5.99973H7.16433V4.87063H4.70106H4.70093V13.1339H7.267V9.046C7.267 7.9683 7.47221 6.92442 8.80838 6.92442C10.1254 6.92442 10.1429 8.15699 10.1429 9.11511V13.1337H12.7094V8.60136C12.7094 6.37659 12.2294 4.66516 9.62867 4.66516Z" fill="#18243A"/>
</svg>
