<svg width="13" height="17" viewBox="0 0 13 17" fill="none" xmlns="http://www.w3.org/2000/svg">
<path d="M6.5 0C2.98462 0 0.125 2.85995 0.125 6.375C0.125 11.0781 6.0068 16.668 6.25722 16.9038C6.32568 16.9678 6.41284 17 6.5 17C6.58716 17 6.67432 16.9678 6.74281 16.9038C6.9932 16.668 12.875 11.0781 12.875 6.375C12.875 2.85995 10.0154 0 6.5 0ZM6.5 9.91668C4.54722 9.91668 2.95832 8.32778 2.95832 6.375C2.95832 4.42222 4.54726 2.83332 6.5 2.83332C8.45274 2.83332 10.0417 4.42226 10.0417 6.375C10.0417 8.32774 8.45278 9.91668 6.5 9.91668Z" fill="white"/>
</svg>
