<svg width="31" height="31" viewBox="0 0 31 31" fill="none" xmlns="http://www.w3.org/2000/svg">
<g>
<path d="M15.5473 31.0001C15.4439 31.0001 15.34 30.9675 15.2527 30.9026L0.383882 19.8813C0.255292 19.7861 0.181084 19.6343 0.183916 19.4743C0.186465 19.3143 0.266905 19.1653 0.398894 19.0752L2.14874 17.8763C2.37476 17.7219 2.68236 17.78 2.83701 18.0048C2.99109 18.2306 2.93387 18.5385 2.70813 18.6931L1.53128 19.4995L15.5473 29.8886L29.5752 19.491L28.4159 18.6628C28.1939 18.5036 28.142 18.1946 28.3009 17.9726C28.4598 17.7502 28.7694 17.6984 28.9912 17.8573L30.7039 19.0809C30.8328 19.1726 30.9098 19.321 30.9113 19.4791C30.9127 19.6377 30.8382 19.787 30.711 19.8813L15.8419 30.9024C15.7549 30.9675 15.651 31.0001 15.5473 31.0001Z" fill="#1B1F2A"/>
<path d="M15.5473 28.5046C15.4439 28.5046 15.34 28.4721 15.2527 28.4072L0.383882 17.3856C0.255292 17.2898 0.181084 17.1386 0.183916 16.9783C0.186465 16.8182 0.266905 16.6695 0.398894 16.5792L2.02015 15.4689C2.24702 15.3148 2.55377 15.3726 2.70842 15.5975C2.86278 15.8232 2.80528 16.1311 2.57983 16.286L1.53128 17.0038L15.5473 27.3932L29.5755 16.995L28.578 16.2824C28.3556 16.1237 28.3038 15.8144 28.4627 15.5921C28.6216 15.37 28.9314 15.3182 29.1532 15.4771L30.7045 16.5851C30.8334 16.6769 30.9104 16.825 30.9118 16.9834C30.9132 17.1414 30.8388 17.2912 30.7116 17.3856L15.8424 28.4072C15.7549 28.4721 15.651 28.5046 15.5473 28.5046Z" fill="#1B1F2A"/>
<path d="M25.0213 11.1338C24.9219 11.1338 24.8211 11.104 24.7341 11.0414L19.765 7.49245C19.5426 7.33384 19.4911 7.02454 19.65 6.8022C19.8089 6.57986 20.1185 6.52831 20.3402 6.68721L25.3094 10.2362C25.5317 10.3948 25.5835 10.7041 25.4246 10.9264C25.328 11.0618 25.176 11.1338 25.0213 11.1338Z" fill="#1B1F2A"/>
<path d="M10.4853 22.2568C10.383 22.2568 10.2799 22.2253 10.191 22.1596L5.3108 18.5424C5.09129 18.3796 5.04541 18.0697 5.2077 17.8496C5.37113 17.6301 5.68043 17.5845 5.9005 17.7468L10.781 21.364C11.0005 21.5269 11.0461 21.8367 10.8838 22.0565C10.7866 22.1877 10.6365 22.2568 10.4853 22.2568Z" fill="#1B1F2A"/>
<path d="M12.6195 13.2725C12.5755 13.2725 12.5311 13.2669 12.4875 13.2547L5.76509 11.3955C5.57957 11.3442 5.4405 11.1902 5.40906 11.0001C5.37734 10.8101 5.45863 10.6186 5.61724 10.5098L15.5801 3.68634C15.7521 3.5688 15.9784 3.57135 16.1475 3.69229L20.3405 6.68725C20.4683 6.77873 20.5453 6.9246 20.5478 7.0818C20.5504 7.23899 20.4782 7.38769 20.3535 7.48315L12.9205 13.1706C12.833 13.2371 12.7268 13.2725 12.6195 13.2725ZM7.05524 10.7251L12.5144 12.2347L19.2206 7.10361L15.854 4.6992L7.05524 10.7251Z" fill="#1B1F2A"/>
<path d="M5.60537 18.6398C5.50199 18.6398 5.39804 18.6073 5.31081 18.5424L0.383882 14.8903C0.255292 14.7946 0.181084 14.6433 0.183916 14.4833C0.186465 14.323 0.266905 14.1743 0.398894 14.0839L5.61699 10.5098C5.84329 10.3551 6.15061 10.414 6.30525 10.6386C6.45962 10.8644 6.40212 11.1722 6.17666 11.3269L1.53128 14.5085L5.60084 17.525L12.319 12.3845C12.5356 12.2185 12.8475 12.2596 13.0129 12.4768C13.1792 12.6938 13.1375 13.0048 12.9206 13.1705L5.90646 18.5376C5.8178 18.6058 5.7113 18.6398 5.60537 18.6398Z" fill="#1B1F2A"/>
<path d="M15.5473 26.0088C15.4439 26.0088 15.34 25.9765 15.2527 25.9117L10.191 22.1596C10.0664 22.0667 9.99186 21.9208 9.99073 21.7656C9.98988 21.6098 10.0613 21.4628 10.185 21.3685L17.2337 15.9754C17.3705 15.8703 17.5526 15.844 17.7135 15.9074C17.8744 15.9697 17.9911 16.1116 18.0214 16.2816L19.2288 23.0592C19.262 23.2444 19.1875 23.4319 19.0365 23.5441L15.8424 25.9117C15.7549 25.9765 15.651 26.0088 15.5473 26.0088ZM11.3086 21.7554L15.5473 24.8974L18.201 22.9312L17.1895 17.2553L11.3086 21.7554Z" fill="#1B1F2A"/>
<path d="M18.7422 23.6411C18.5904 23.6411 18.4409 23.5723 18.344 23.4409C18.1814 23.2211 18.2273 22.9112 18.4468 22.7484L29.5755 14.4996L25.0324 11.2543L17.835 16.7616C17.6189 16.9278 17.3071 16.8868 17.1414 16.6692C16.9751 16.4523 17.0165 16.1413 17.2337 15.9756L24.7214 10.246C24.8933 10.1137 25.1326 10.1092 25.3097 10.2363L30.7045 14.0898C30.8334 14.1816 30.9104 14.3297 30.9118 14.488C30.9132 14.6464 30.8387 14.7959 30.7116 14.8902L19.0365 23.544C18.9476 23.6097 18.8445 23.6411 18.7422 23.6411Z" fill="#1B1F2A"/>
<path d="M12.975 3.69028C12.8484 3.69028 12.7217 3.64184 12.6249 3.54526L11.0574 1.97754C10.864 1.78409 10.864 1.47083 11.0574 1.27766C11.2506 1.08421 11.5639 1.08421 11.7573 1.27766L13.325 2.8451C13.5182 3.03855 13.5182 3.35181 13.325 3.54526C13.2282 3.64184 13.1016 3.69028 12.975 3.69028Z" fill="#1B1F2A"/>
<path d="M18.7442 3.69028C18.6173 3.69028 18.491 3.64184 18.3941 3.54526C18.201 3.35181 18.201 3.03855 18.3941 2.8451L19.9619 1.27766C20.155 1.08421 20.4683 1.08421 20.6617 1.27766C20.8549 1.47083 20.8549 1.78409 20.6617 1.97754L19.094 3.54526C18.9974 3.64184 18.8708 3.69028 18.7442 3.69028Z" fill="#1B1F2A"/>
<path d="M15.4329 2.97003C15.1593 2.97003 14.9378 2.74854 14.9378 2.47493V0.4951C14.9378 0.221492 15.1593 0 15.4329 0C15.7062 0 15.9277 0.221492 15.9277 0.4951V2.47493C15.9277 2.74882 15.7065 2.97003 15.4329 2.97003Z" fill="#1B1F2A"/>
</g>
<defs>
<clipPath id="clip0">
<rect width="31" height="31" fill="white"/>
</clipPath>
</defs>
</svg>
