<svg width="24" height="26" viewBox="0 0 24 26" fill="none" xmlns="http://www.w3.org/2000/svg">
<path d="M21.653 2.77114H21.2174C21.0131 2.2423 20.4993 1.8662 19.8992 1.8662H19.4016C19.3299 1.60912 19.2385 1.35641 19.127 1.11004C18.8219 0.435606 18.1467 0 17.4066 0H2.50852C1.76843 0 1.0932 0.435606 0.788115 1.11004C0.16446 2.48847 0.16446 4.06962 0.788115 5.44805C0.915861 5.73032 1.10847 5.97074 1.34353 6.15502V12.2382C1.34353 13.2463 2.16357 14.0664 3.17165 14.0664C4.17973 14.0664 4.99977 13.2463 4.99977 12.2382V9.66903C4.99977 9.25981 5.33262 8.92695 5.74185 8.92695C6.15107 8.92695 6.48373 9.25981 6.48373 9.66903V10.1643C6.48373 11.056 7.20914 11.7812 8.10059 11.7812C8.99203 11.7812 9.71725 11.056 9.71725 10.1643V8.77798C9.71725 8.54828 9.90411 8.36142 10.1338 8.36142H12.0022C12.9012 8.36142 13.6325 7.63005 13.6325 6.73107V6.5579H17.4064C18.1465 6.5579 18.8219 6.12229 19.1268 5.44805C19.2383 5.20169 19.3299 4.94877 19.4016 4.69169H19.899C20.4991 4.69169 21.0131 4.3156 21.2174 3.78676H21.653C22.2189 3.78676 22.6793 4.24716 22.6793 4.81309V7.06729C22.6793 7.6124 22.2727 8.08331 21.7333 8.16286L13.1158 9.43179C12.3894 9.5387 11.7253 9.90369 11.2454 10.4593C10.7656 11.0149 10.5014 11.7253 10.5014 12.4594V14.861C10.5014 14.8987 10.5055 14.9356 10.5135 14.9711C9.97631 14.9717 9.53951 15.4089 9.53951 15.946V17.1608C9.18782 17.2082 8.91586 17.5103 8.91586 17.8747V23.9322C8.91586 25.0723 9.84361 26.0001 10.9838 26.0001C12.1238 26.0001 13.0515 25.0723 13.0515 23.9322V17.8747C13.0515 17.5103 12.7796 17.2082 12.4279 17.1606V15.9458C12.4279 15.4257 12.0185 14.9993 11.5047 14.9723C11.5128 14.9364 11.517 14.8991 11.517 14.8608V12.4594C11.517 11.4527 12.268 10.5831 13.2638 10.4365L21.8813 9.16757C22.9152 9.01522 23.6949 8.11227 23.6949 7.06729V4.81309C23.6949 3.68718 22.7789 2.77114 21.653 2.77114ZM12.6171 6.73107C12.6171 7.07007 12.3412 7.3458 12.0024 7.3458H10.1338C9.34413 7.3458 8.70163 7.9883 8.70163 8.77798V10.1643C8.70163 10.4958 8.43205 10.7656 8.10059 10.7656C7.76912 10.7656 7.49954 10.4958 7.49954 10.1643V9.66903C7.49954 8.69983 6.71105 7.91133 5.74185 7.91133C4.77264 7.91133 3.98435 8.69983 3.98435 9.66903V12.2382C3.98435 12.6861 3.61975 13.0507 3.17185 13.0507C2.72375 13.0507 2.35935 12.6861 2.35935 12.2382V6.55195C2.37125 6.55294 2.38335 6.55373 2.39565 6.55452H2.39744C2.4026 6.55492 2.40775 6.55532 2.41291 6.55552C2.4143 6.55552 2.41549 6.55571 2.41688 6.55571C2.42144 6.55591 2.426 6.55611 2.43056 6.55631C2.43215 6.55631 2.43394 6.55651 2.43552 6.55651C2.43989 6.55671 2.44405 6.55671 2.44822 6.5569C2.4502 6.5569 2.45219 6.5571 2.45397 6.5571C2.45814 6.5573 2.4621 6.5573 2.46607 6.5575C2.46825 6.5575 2.47024 6.5575 2.47242 6.5577C2.47639 6.5577 2.48035 6.5577 2.48432 6.5579H2.49067C2.49662 6.5579 2.50257 6.55809 2.50852 6.55809H12.6171V6.73107ZM17.4066 5.54228H2.50852C2.50356 5.54228 2.4986 5.54228 2.49364 5.54208C2.49186 5.54208 2.48988 5.54208 2.48809 5.54208C2.48511 5.54188 2.48214 5.54188 2.47897 5.54168C2.47678 5.54168 2.4744 5.54168 2.47222 5.54148C2.46964 5.54128 2.46706 5.54128 2.46448 5.54109C2.46191 5.54089 2.45933 5.54089 2.45675 5.54069C2.45476 5.54049 2.45278 5.54049 2.4508 5.54029C2.44762 5.54009 2.44465 5.5399 2.44167 5.5397C2.44028 5.5395 2.43909 5.5395 2.4379 5.5393C2.42124 5.53791 2.40478 5.53613 2.38831 5.53394C2.38772 5.53375 2.38712 5.53375 2.38633 5.53355C2.38276 5.53315 2.37899 5.53256 2.37522 5.53196C2.37423 5.53176 2.37324 5.53156 2.37225 5.53137C2.36867 5.53077 2.3651 5.53037 2.36153 5.52978C2.36034 5.52958 2.35915 5.52938 2.35796 5.52918C2.35459 5.52839 2.35122 5.52779 2.34765 5.5272C2.34646 5.527 2.34527 5.5268 2.34408 5.52641C2.34071 5.52581 2.33733 5.52522 2.33396 5.52442C2.3296 5.52363 2.32503 5.52264 2.32047 5.52165C2.31968 5.52145 2.31869 5.52125 2.31789 5.52105C2.31373 5.52006 2.30956 5.51927 2.3056 5.51827C2.3048 5.51807 2.30421 5.51788 2.30341 5.51768C2.29885 5.51669 2.29449 5.5155 2.28992 5.51431C2.28992 5.51431 2.28992 5.51431 2.28973 5.51431C2.0382 5.44885 1.82357 5.2727 1.71348 5.02931C1.4683 4.48758 1.34274 3.90697 1.33639 3.32517H6.44723C6.72751 3.32517 6.95504 3.09784 6.95504 2.81736C6.95504 2.53687 6.72751 2.30955 6.44723 2.30955H1.44807C1.51055 2.04334 1.59883 1.7817 1.71348 1.52859C1.85432 1.21696 2.16654 1.01562 2.50852 1.01562H17.4066C17.7486 1.01562 18.0606 1.21696 18.2017 1.52859C18.7049 2.64101 18.7049 3.91689 18.2017 5.02931C18.0606 5.34094 17.7486 5.54228 17.4066 5.54228ZM19.8992 3.67607H19.5801C19.6003 3.41165 19.6003 3.14644 19.5801 2.88202H19.8992C20.1182 2.88202 20.2962 3.05995 20.2962 3.27895C20.2962 3.49794 20.1182 3.67607 19.8992 3.67607ZM11.4123 17.1543H10.5551V15.9865H11.4123V17.1543ZM12.0359 23.9322C12.0359 24.5122 11.5638 24.9843 10.9838 24.9843C10.4036 24.9843 9.93148 24.5124 9.93148 23.9322V18.1699H12.0359V23.9322Z" fill="#1B1F2A"/>
</svg>
