<svg width="30" height="26" viewBox="0 0 30 26" fill="none" xmlns="http://www.w3.org/2000/svg">
<path d="M26.9 1.31884C24.1 0.668867 20.05 0.51881 17.25 1.06882L16.8 1.16884C16.15 1.26886 15.5 1.41886 14.85 1.51882L13.9089 1.66887C13.906 1.66887 13.903 1.66881 13.9001 1.66881L11.4001 2.06883C10.4712 2.19547 9.7563 2.89263 9.55632 3.76884H7.50007C6.40005 3.76884 5.50006 4.66883 5.50006 5.76886H0.499973C0.199977 5.76886 0 5.96883 0 6.26883C0 6.56883 0.199977 6.7688 0.499973 6.7688H5.49994C5.49994 7.86883 6.39993 8.76881 7.49996 8.76881H9.5562C9.65283 9.19212 9.8696 9.57355 10.1726 9.86914C10.5049 10.197 10.9434 10.4307 11.4499 10.5188L16.3999 11.2688C17.312 11.5052 18.4525 11.6501 19.6667 11.7194L20.4999 15.4688C20.5499 15.7188 20.7499 15.8688 20.9999 15.8688H21.9999V19.0688L19.2355 21.8332C19.1151 21.9002 19.0339 22.0159 19.0086 22.1651C18.999 22.2076 18.996 22.2515 18.9999 22.2961V24.2688C18.9999 24.8188 19.4499 25.2688 19.9999 25.2688H27.4999C28.0499 25.2688 28.4999 24.8188 28.4999 24.2688V22.2687C28.4999 22.1348 28.4598 22.0209 28.3889 21.9357L27.4999 19.2687V15.2687L27.2265 11.1221C28.855 10.5647 29.9999 9.00483 29.9999 7.26872V5.2687C30 3.41881 28.75 1.81881 26.9 1.31884ZM11.6 3.06883L13.5 2.76592V9.81129L11.55 9.5188C10.95 9.41879 10.5 8.86883 10.5 8.26878V4.26876C10.5 3.66883 10.95 3.11881 11.6 3.06883ZM6.50001 6.7688V5.7688C6.50001 5.21878 6.95 4.76879 7.50001 4.76879H9.50003V7.76881H7.50001C6.95 7.76881 6.50001 7.31882 6.50001 6.7688ZM26.4999 15.2688V18.7688H23V15.3689V15.3688V11.7273C24.1575 11.6661 25.2802 11.5383 26.2522 11.3545L26.4999 15.2688ZM21.4 14.8688L20.75 11.8688C21.15 11.8688 21.6 11.8688 22 11.8688V14.8688H21.4ZM22.7 19.7688H26.6499L27.2999 21.7688H20.7L22.7 19.7688ZM27.5 24.2688H20V22.7688H27.5V24.2688H27.5ZM28.95 7.26878C28.95 8.6688 27.9999 9.86878 26.6 10.2188C23.8 10.9188 19.3 10.9687 16.55 10.2687L14.5 9.96123V2.60651L15.05 2.51882C15.7 2.4188 16.4 2.31884 17.05 2.16885L17.5 2.06883C18.6 1.86885 19.9 1.76883 21.3 1.76883C23.2 1.76883 25.2 1.91883 26.65 2.31884C28 2.66882 28.95 3.86886 28.95 5.26882V7.26878H28.95Z" fill="white"/>
</svg>
