<svg width="27" height="27" viewBox="0 0 27 27" fill="none" xmlns="http://www.w3.org/2000/svg">
<path d="M26.3754 3.3863C26.2172 3.28989 26.0209 3.2798 25.8537 3.35972L21.5651 5.3799C20.0531 6.09202 19.0384 7.55952 18.9059 9.2256L18.7953 10.5957L16.5732 14.2865V12.7106C16.5732 12.7055 16.5706 12.7011 16.5706 12.6956C16.5697 12.6414 16.5611 12.5874 16.5444 12.5357L15.5105 9.43406L17.6215 5.21346C17.7142 5.02559 17.6928 4.80127 17.5661 4.63421L14.2472 0.208843C14.0461 -0.0354651 13.685 -0.0704841 13.4405 0.130566C13.4118 0.154049 13.3857 0.180416 13.3622 0.208843L10.043 4.63421C9.91737 4.80188 9.89698 5.02601 9.9905 5.21346L12.1015 9.43406L11.0676 12.5357C11.051 12.5874 11.0423 12.6414 11.0415 12.6956V12.7106V14.9182L7.5952 9.68744C7.59088 9.68146 7.58428 9.67796 7.58037 9.6726C7.547 9.62646 7.50704 9.58588 7.46151 9.55189C7.45101 9.54427 7.44153 9.53541 7.43041 9.5282C7.41949 9.52099 7.41763 9.51708 7.41063 9.51317L5.38262 8.34044L4.54073 7.06266L3.32371 5.21511C3.18405 5.00335 2.91811 4.91374 2.67875 4.99778L0.526319 5.75275C0.238545 5.85513 0.087964 6.17133 0.190343 6.4591C0.205174 6.50133 0.225156 6.54129 0.249875 6.57858L1.77155 8.8888L2.61077 10.166L2.88721 12.4927C2.88866 12.5001 2.89051 12.5075 2.89278 12.5147C2.89525 12.5264 2.89813 12.5382 2.90163 12.5495C2.9142 12.608 2.93624 12.6643 2.96693 12.7155C2.97085 12.7211 2.97085 12.7283 2.97476 12.7339C2.97867 12.7392 11.2009 25.2016 11.2407 25.2354C11.6452 26.2981 12.6643 27.0004 13.8014 27C14.0272 26.9998 14.2521 26.9724 14.4713 26.9182C15.184 26.7433 15.7973 26.2909 16.1744 25.6612L23.5315 13.4563L24.6931 12.7211C25.3035 12.333 25.8156 11.8092 26.1901 11.1904C26.6653 10.4033 26.8964 9.49257 26.8538 8.57404L26.6381 3.83783C26.6315 3.65285 26.533 3.48332 26.3754 3.3863ZM22.3689 13.2437L21.513 14.6649L18.6703 12.9502L19.5272 11.529L22.3689 13.2437ZM12.1479 21.626V13.2637H15.4668V16.1214L12.1479 21.626ZM13.1 9.94472H14.5149L15.2522 12.1573H12.3625L13.1 9.94472ZM13.8074 6.07245C13.5019 6.07245 13.2543 5.82485 13.2543 5.51936C13.2543 5.21387 13.5019 4.96627 13.8074 4.96627C14.1128 4.96627 14.3607 5.21387 14.3607 5.51936C14.3607 5.82485 14.1128 6.07245 13.8074 6.07245ZM13.8074 1.46293L16.4787 5.02436L14.5718 8.83833H14.3604V7.07708C15.2246 6.7716 15.6776 5.82341 15.3719 4.95926C15.0664 4.09512 14.1184 3.64235 13.2543 3.94783C12.3901 4.25332 11.9373 5.20151 12.2428 6.06566C12.4099 6.5382 12.7817 6.91002 13.2543 7.07708V8.83833H13.0429L11.136 5.02436L13.8074 1.46293ZM6.08135 10.0226L5.91862 10.1299L3.88134 11.472L3.69389 9.90435C3.68359 9.81907 3.65372 9.73749 3.60634 9.66581L2.99804 8.74213L3.92171 8.13363L4.53022 9.0573C4.5776 9.12899 4.64084 9.18852 4.715 9.23157L6.08135 10.0226ZM2.63776 6.18307L3.31259 7.2081L2.38891 7.8166L1.55917 6.56107L2.63776 6.18307ZM5.59006 11.6701L6.9731 10.7567L11.0415 16.9285V22.9619L4.20434 12.5839L5.59006 11.6701ZM15.2285 25.0865C14.7595 25.874 13.741 26.1323 12.9535 25.6633C12.166 25.1944 11.9079 24.1758 12.3767 23.3883C12.3802 23.3827 12.3835 23.3774 12.3868 23.3718L16.5638 16.4444H16.5732V16.4296L18.0988 13.8988L19.52 14.7574L20.9432 15.6124L15.2285 25.0865ZM25.2452 10.6169C24.9599 11.0882 24.5693 11.4874 24.1042 11.7828L23.1216 12.4051L21.5175 11.4394L19.9132 10.4735L20.0045 9.31191C20.1058 8.04175 20.8793 6.92321 22.0319 6.38L25.5721 4.71331L25.6425 6.25496C25.5871 6.24899 25.5311 6.25126 25.4765 6.26217L24.1367 6.59423C22.8898 6.89869 21.9245 7.8854 21.6475 9.13867C21.5807 9.43674 21.7682 9.73234 22.0663 9.79908C22.106 9.80835 22.1466 9.81309 22.1874 9.81309C22.4461 9.81268 22.6702 9.63305 22.7267 9.38051C22.9137 8.53779 23.5628 7.87428 24.4012 7.6689L25.6934 7.34858L25.7515 8.62101C25.7838 9.32159 25.6077 10.0162 25.2452 10.6169Z" fill="#1B1F2A"/>
</svg>
