<svg width="26" height="26" viewBox="0 0 26 26" fill="none" xmlns="http://www.w3.org/2000/svg">
<path d="M25.6369 3.68708L22.313 0.363092C21.8288 -0.121056 21.041 -0.121005 20.5568 0.363092L14.2984 6.62147C14.1417 6.77824 14.1417 7.03224 14.2984 7.18901C14.4551 7.34567 14.7092 7.34567 14.8659 7.18901L21.1243 0.930624C21.2072 0.847647 21.3175 0.801995 21.4348 0.801995C21.5522 0.801995 21.6624 0.847647 21.7454 0.930624L25.0695 4.25461C25.1524 4.33754 25.1981 4.44783 25.1981 4.56519C25.1981 4.68249 25.1524 4.79279 25.0695 4.87572L24.2537 5.69147L22.1164 3.55419C21.9597 3.39753 21.7056 3.39753 21.5489 3.55419C21.3922 3.71095 21.3922 3.96496 21.5489 4.12172L23.6862 6.259L22.7542 7.19099L21.8148 6.25164C21.6581 6.09497 21.4041 6.09497 21.2474 6.25164C21.0907 6.4084 21.0907 6.66241 21.2474 6.81917L22.1867 7.75847L21.2547 8.69046L20.3154 7.7511C20.1587 7.59444 19.9046 7.59444 19.7479 7.7511C19.5912 7.90787 19.5912 8.16187 19.7479 8.31863L20.6872 9.25794L19.7553 10.1899L17.6179 8.05254C17.4613 7.89593 17.2072 7.89583 17.0504 8.05254C16.8937 8.2093 16.8937 8.46331 17.0504 8.62007L19.1878 10.7574L18.2558 11.6894L17.3164 10.75C17.1597 10.5934 16.9057 10.5934 16.749 10.75C16.5922 10.9068 16.5922 11.1608 16.749 11.3176L17.6883 12.2569L16.8998 13.0453L12.9547 9.10016L13.6885 8.36632C13.8452 8.20956 13.8452 7.95555 13.6885 7.79879C13.5318 7.64213 13.2777 7.64213 13.121 7.79879L12.3872 8.53263L4.98487 1.1306C4.47005 0.61578 3.78557 0.332268 3.05752 0.332268C2.32947 0.332319 1.64499 0.615831 1.13022 1.13065C0.615348 1.64547 0.331836 2.3299 0.331836 3.058C0.331836 3.78605 0.615348 4.47053 1.13017 4.98535L8.5323 12.3875L0.363829 20.5561C-0.12032 21.0403 -0.12032 21.8281 0.363829 22.3123L3.68782 25.6363C3.92232 25.8708 4.23417 26 4.56588 26C4.89758 26 5.20943 25.8708 5.44393 25.6363L13.6125 17.4677L14.1943 18.0495C14.351 18.2062 14.6051 18.2062 14.7618 18.0495C14.9185 17.8928 14.9185 17.6388 14.7618 17.482L13.9587 16.679C13.9431 16.6543 13.9249 16.6308 13.9034 16.6093C13.8819 16.5879 13.8584 16.5696 13.8338 16.554L5.13889 7.85907L6.215 6.78296L6.88033 7.4483C6.95869 7.5266 7.06137 7.5658 7.1641 7.5658C7.26683 7.5658 7.36951 7.5266 7.44786 7.4483C7.60457 7.29153 7.60457 7.03753 7.44786 6.88076L6.78258 6.21548L7.85868 5.13937L12.1029 9.38362C12.1031 9.38382 12.1032 9.38398 12.1034 9.38418C12.1036 9.38438 12.1038 9.38448 12.104 9.38469L16.5769 13.8575C16.5879 13.8722 16.5997 13.8865 16.6131 13.8998C16.6264 13.9132 16.6407 13.925 16.6553 13.9361L22.6103 19.8911L21.5342 20.9672L15.526 14.9589C15.5224 14.955 15.5191 14.9509 15.5153 14.9472L13.1194 12.5512C13.1154 12.5472 13.1111 12.5437 13.107 12.54L8.87477 8.30777C8.71805 8.15111 8.464 8.15111 8.30729 8.30777C8.15057 8.46453 8.15057 8.71854 8.30729 8.8753L20.9666 21.5346L19.8904 22.6107L16.077 18.7972C15.9203 18.6405 15.6662 18.6405 15.5095 18.7972C15.3528 18.954 15.3528 19.208 15.5095 19.3647L19.6067 23.462C19.6457 23.5009 19.6939 23.5323 19.7453 23.5522L24.5937 25.4347C24.6702 25.4643 24.7499 25.4787 24.8291 25.4787C24.9988 25.4787 25.1654 25.4123 25.2898 25.2879C25.4722 25.1054 25.5295 24.8322 25.4361 24.5918L23.5517 19.7455C23.5318 19.6943 23.5003 19.646 23.4614 19.6072L17.4673 13.613L25.6369 5.44325C26.1211 4.95905 26.1211 4.17128 25.6369 3.68708ZM13.0452 16.9003L12.2577 17.6875L11.3184 16.7482C11.1616 16.5915 10.9076 16.5915 10.7509 16.7482C10.5942 16.9049 10.5942 17.1589 10.7509 17.3157L11.6902 18.2551L10.7582 19.187L8.62091 17.0497C8.4642 16.893 8.21014 16.893 8.05343 17.0497C7.89672 17.2065 7.89672 17.4605 8.05343 17.6172L10.1908 19.7546L9.25877 20.6866L8.31942 19.7472C8.16271 19.5905 7.90865 19.5905 7.75194 19.7472C7.59523 19.904 7.59523 20.158 7.75194 20.3147L8.69129 21.254L7.75931 22.186L6.81995 21.2467C6.66324 21.09 6.40918 21.09 6.25247 21.2467C6.09576 21.4034 6.09576 21.6574 6.25247 21.8142L7.19182 22.7536L6.25984 23.6855L4.1225 21.5482C3.96579 21.3916 3.71173 21.3916 3.55502 21.5482C3.39831 21.705 3.39831 21.959 3.55502 22.1157L5.69236 24.253L4.87661 25.0688C4.79363 25.1518 4.68333 25.1975 4.56603 25.1975C4.44872 25.1975 4.33843 25.1518 4.25545 25.0688L0.931461 21.7447C0.760227 21.5735 0.760227 21.2949 0.931461 21.1236L9.09998 12.9551L13.0452 16.9003ZM1.69765 4.41787C0.947813 3.66804 0.947813 2.44797 1.69765 1.69813C2.44748 0.948245 3.66756 0.948245 4.41739 1.69813L5.6857 2.96644L2.96596 5.68619L1.69765 4.41787ZM5.93154 5.93141C5.93143 5.93151 5.93133 5.93156 5.93128 5.93166C5.93118 5.93176 5.93113 5.93187 5.93103 5.93192L4.57141 7.29153L3.53349 6.25362L6.25323 3.53387L7.29115 4.57179L5.93154 5.93141ZM24.5634 24.5619L20.6094 23.0269L23.0266 20.6096L24.5634 24.5619Z" fill="#1B1F2A"/>
</svg>
