<svg width="14" height="12" viewBox="0 0 14 12" fill="none" xmlns="http://www.w3.org/2000/svg">
<path d="M11.9028 3.40834C11.9079 3.51754 11.9105 3.6271 11.9105 3.73814C11.9105 7.11595 9.33974 11.0103 4.63832 11.0103C3.1941 11.0103 1.85136 10.5879 0.720032 9.86209C0.920781 9.88525 1.1241 9.89702 1.32963 9.89702C2.52824 9.89702 3.62906 9.49001 4.50338 8.80356C3.38602 8.78224 2.44184 8.04432 2.11682 7.02844C2.27271 7.05859 2.43228 7.0744 2.59773 7.0744C2.83121 7.0744 3.05659 7.04352 3.27058 6.98469C2.10248 6.74974 1.22043 5.71695 1.22043 4.479C1.22043 4.46834 1.22043 4.45768 1.22043 4.44701C1.56568 4.63857 1.95946 4.75328 2.3786 4.76652C1.69326 4.30877 1.24213 3.52563 1.24213 2.6388C1.24213 2.17039 1.36824 1.73175 1.58774 1.35378C2.84775 2.90021 4.73207 3.91756 6.85538 4.02419C6.81236 3.83704 6.7892 3.64255 6.7892 3.4418C6.7892 2.03067 7.9334 0.886841 9.34563 0.886841C10.0802 0.886841 10.7446 1.19716 11.2097 1.69278C11.7914 1.57843 12.3392 1.36555 12.8334 1.07288C12.6418 1.66998 12.2374 2.17075 11.7094 2.48622C12.2263 2.42518 12.719 2.28767 13.1768 2.08472C12.8348 2.59762 12.4017 3.04765 11.9028 3.40834Z" fill="#18243A"/>
</svg>
