<svg width="49" height="34" viewBox="0 0 49 34" fill="none" xmlns="http://www.w3.org/2000/svg">
<path d="M10.31 28.5665H7.5426V34.0001H10.31V28.5665Z" fill="#1B1F2A"/>
<path d="M10.31 21.4651H7.5426V26.8987H10.31V21.4651Z" fill="#1B1F2A"/>
<path d="M10.31 14.2563H7.5426V19.6899H10.31V14.2563Z" fill="#1B1F2A"/>
<path d="M10.31 7.15491H7.5426V12.5885H10.31V7.15491Z" fill="#1B1F2A"/>
<path d="M5.48062 28.5665H0V34.0001H5.48062V28.5665Z" fill="#1B1F2A"/>
<path d="M5.48062 21.4651H0V26.8987H5.48062V21.4651Z" fill="#1B1F2A"/>
<path d="M5.48062 14.2563H0V19.6899H5.48062V14.2563Z" fill="#1B1F2A"/>
<path d="M29.4651 14.2563H23.9845V19.6899H29.4651V14.2563Z" fill="#1B1F2A"/>
<path d="M29.4651 7.15491H23.9845V12.5885H29.4651V7.15491Z" fill="#1B1F2A"/>
<path d="M21.9225 14.2563H16.4418V19.6899H21.9225V14.2563Z" fill="#1B1F2A"/>
<path d="M36.8449 28.5665H31.3643V34.0001H36.8449V28.5665Z" fill="#1B1F2A"/>
<path d="M21.9225 7.15491H16.4418V12.5885H21.9225V7.15491Z" fill="#1B1F2A"/>
<path d="M21.9225 0H16.4418V5.43354H21.9225V0Z" fill="#1B1F2A"/>
<path d="M36.8449 21.6267H31.3643V27.0603H36.8449V21.6267Z" fill="#1B1F2A"/>
<path d="M36.8449 14.4714H31.3643V19.905H36.8449V14.4714Z" fill="#1B1F2A"/>
<path d="M14.5969 28.5665H11.8295V34.0001H14.5969V28.5665Z" fill="#1B1F2A"/>
<path d="M14.5969 21.6267H11.8295V27.0603H14.5969V21.6267Z" fill="#1B1F2A"/>
<path d="M14.5969 14.4714H11.8295V19.905H14.5969V14.4714Z" fill="#1B1F2A"/>
<path d="M14.5969 7.15491H11.8295V12.5885H14.5969V7.15491Z" fill="#1B1F2A"/>
<path d="M44.3876 28.5665H38.907V34.0001H44.3876V28.5665Z" fill="#1B1F2A"/>
<path d="M44.3876 21.4651H38.907V26.8987H44.3876V21.4651Z" fill="#1B1F2A"/>
<path d="M44.3876 14.2563H38.907V19.6899H44.3876V14.2563Z" fill="#1B1F2A"/>
<path d="M49.0542 28.5665H46.2868V34.0001H49.0542V28.5665Z" fill="#1B1F2A"/>
<path d="M49.0542 21.4651H46.2868V26.8987H49.0542V21.4651Z" fill="#1B1F2A"/>
<path d="M49.0542 14.2563H46.2868V19.6899H49.0542V14.2563Z" fill="#1B1F2A"/>
<path d="M29.4651 21.4651H16.4418V34.0538H29.4651V21.4651Z" fill="#1B1F2A"/>
</svg>
