<svg width="49" height="34" viewBox="0 0 49 34" fill="none" xmlns="http://www.w3.org/2000/svg">
    <path d="M10.31 28.567H7.543V34h2.767v-5.433z" fill="#1B1F2A"/>
    <path d="M10.31 21.465H7.543V26.9h2.767v-5.434z" fill="#1B1F2A"/>
    <path d="M10.31 14.256H7.543v5.434h2.767v-5.434z" fill="#1B1F2A"/>
    <path d="M10.31 7.155H7.543v5.433h2.767V7.155z" fill="#1B1F2A"/>
    <path d="M5.48 28.567H0V34h5.48v-5.433z" fill="#1B1F2A"/>
    <path d="M5.48 21.465H0V26.9h5.48v-5.434z" fill="#1B1F2A"/>
    <path d="M5.48 14.256H0v5.434h5.48v-5.434z" fill="#1B1F2A"/>
    <path d="M29.465 14.256h-5.48v5.434h5.48v-5.434z" fill="#1B1F2A"/>
    <path d="M29.465 7.155h-5.48v5.433h5.48V7.155z" fill="#1B1F2A"/>
    <path d="M21.922 14.256h-5.48v5.434h5.48v-5.434z" fill="#1B1F2A"/>
    <path d="M36.845 28.567h-5.48V34h5.48v-5.433z" fill="#1B1F2A"/>
    <path d="M21.922 7.155h-5.48v5.433h5.48V7.155z" fill="#1B1F2A"/>
    <path d="M21.922 0h-5.48v5.434h5.48V0z" fill="#1B1F2A"/>
    <path d="M36.845 21.627h-5.48v5.433h5.48v-5.433z" fill="#1B1F2A"/>
    <path d="M36.845 14.471h-5.48v5.434h5.48v-5.434z" fill="#1B1F2A"/>
    <path d="M14.597 28.567h-2.768V34h2.768v-5.433z" fill="#1B1F2A"/>
    <path d="M14.597 21.627h-2.768v5.433h2.768v-5.433z" fill="#1B1F2A"/>
    <path d="M14.597 14.471h-2.768v5.434h2.768v-5.434z" fill="#1B1F2A"/>
    <path d="M14.597 7.155h-2.768v5.433h2.768V7.155z" fill="#1B1F2A"/>
    <path d="M44.388 28.567h-5.481V34h5.48v-5.433z" fill="#1B1F2A"/>
    <path d="M44.388 21.465h-5.481V26.9h5.48v-5.434z" fill="#1B1F2A"/>
    <path d="M44.388 14.256h-5.481v5.434h5.48v-5.434z" fill="#1B1F2A"/>
    <path d="M49.054 28.567h-2.767V34h2.767v-5.433z" fill="#1B1F2A"/>
    <path d="M49.054 21.465h-2.767V26.9h2.767v-5.434z" fill="#1B1F2A"/>
    <path d="M49.054 14.256h-2.767v5.434h2.767v-5.434z" fill="#1B1F2A"/>
    <path d="M29.465 21.465H16.442v12.589h13.023V21.465z" fill="#1B1F2A"/>
</svg>
