<?xml version="1.0" encoding="UTF-8"?><!DOCTYPE svg PUBLIC "-//W3C//DTD SVG 1.1//EN" "http://www.w3.org/Graphics/SVG/1.1/DTD/svg11.dtd"><svg xmlns="http://www.w3.org/2000/svg"><defs>
        <clipPath id="a">
            <path d="M0 0h20v20H0z"/>
        </clipPath>
    </defs><symbol id="icon-calc" viewBox="0 0 20 20">
    <g clip-path="url(#a)">
        <path d="M10.37 20H20v-9.63h-9.63V20zm2.223-6.296h5.185a.37.37 0 0 1 0 .74h-5.185a.37.37 0 1 1 0-.74zm0 2.222h5.185a.37.37 0 0 1 0 .74h-5.185a.37.37 0 0 1 0-.74z"/>
        <path d="M0 20h9.63v-9.63H0V20zm2.72-6.386a.37.37 0 1 1 .523-.524l1.572 1.571 1.571-1.571a.37.37 0 1 1 .524.524L5.34 15.185l1.571 1.572a.37.37 0 1 1-.524.523L4.815 15.71 3.243 17.28a.37.37 0 1 1-.523-.523l1.571-1.572-1.571-1.571z"/>
        <path d="M20 0h-9.63v9.63H20V0zm-2.222 5.185h-5.185a.37.37 0 1 1 0-.74h5.185a.37.37 0 0 1 0 .74z"/>
        <path d="M9.63 0H0v9.63h9.63V0zM7.407 5.185H5.185v2.222a.37.37 0 0 1-.74 0V5.185H2.221a.37.37 0 0 1 0-.74h2.222V2.221a.37.37 0 0 1 .741 0v2.222h2.222a.37.37 0 0 1 0 .741z"/>
    </g>
    
</symbol><symbol id="icon-facebook" viewBox="0 0 8 15">
    <path d="M5.156 14.908V8.559h2.13l.32-2.474h-2.45v-1.58c0-.716.198-1.205 1.226-1.205h1.31V1.086A17.756 17.756 0 0 0 5.783.99c-1.889 0-3.182 1.153-3.182 3.27v1.825H.465v2.474H2.6v6.349h2.555z"/>
</symbol><symbol id="icon-linkedin" viewBox="0 0 13 14">
    <path d="M1.807.763a1.49 1.49 0 1 0 0 2.979 1.49 1.49 0 0 0 0-2.98z"/>
    <path d="M3.09 4.87H.522v8.264H3.09V4.871z"/>
    <path d="M9.629 4.665c-1.25 0-2.087.685-2.43 1.335h-.035V4.87H4.701v8.264h2.566V9.046c0-1.078.205-2.122 1.541-2.122 1.317 0 1.335 1.233 1.335 2.191v4.019h2.566V8.6c0-2.224-.48-3.936-3.08-3.936z"/>
</symbol><symbol id="icon-mark" viewBox="0 0 13 17">
    <path d="M6.5 0A6.382 6.382 0 0 0 .125 6.375c0 4.703 5.882 10.293 6.132 10.529a.355.355 0 0 0 .486 0c.25-.236 6.132-5.826 6.132-10.529A6.382 6.382 0 0 0 6.5 0zm0 9.917a3.546 3.546 0 0 1-3.542-3.542A3.546 3.546 0 0 1 6.5 2.833a3.546 3.546 0 0 1 3.542 3.542A3.546 3.546 0 0 1 6.5 9.917z"/>
</symbol><symbol id="icon-phone" viewBox="0 0 12 12">
    <path d="M11.037 7.877a6.813 6.813 0 0 1-2.14-.341c-.335-.114-.746-.01-.95.2l-1.35 1.019C5.032 7.92 4.068 6.956 3.244 5.403l.99-1.314a.97.97 0 0 0 .238-.983A6.824 6.824 0 0 1 4.13.963.964.964 0 0 0 3.167 0H.963A.964.964 0 0 0 0 .963C0 7.049 4.951 12 11.037 12c.531 0 .963-.432.963-.963V8.84a.964.964 0 0 0-.963-.962z"/>
</symbol><symbol id="icon-twitter" viewBox="0 0 14 12">
    <path d="M11.903 3.408c.005.11.008.22.008.33 0 3.378-2.571 7.272-7.273 7.272A7.229 7.229 0 0 1 .72 9.862c.2.023.404.035.61.035 1.198 0 2.3-.407 3.173-1.093a2.558 2.558 0 0 1-2.386-1.776 2.521 2.521 0 0 0 1.154-.043 2.558 2.558 0 0 1-2.05-2.506v-.032c.345.192.738.306 1.158.32a2.555 2.555 0 0 1-.791-3.413 7.255 7.255 0 0 0 5.267 2.67 2.555 2.555 0 0 1 4.354-2.331 5.127 5.127 0 0 0 1.624-.62 2.56 2.56 0 0 1-1.124 1.413 5.088 5.088 0 0 0 1.468-.401 5.188 5.188 0 0 1-1.274 1.323z"/>
</symbol></svg>