<?xml version="1.0" encoding="UTF-8"?><!DOCTYPE svg PUBLIC "-//W3C//DTD SVG 1.1//EN" "http://www.w3.org/Graphics/SVG/1.1/DTD/svg11.dtd"><svg xmlns="http://www.w3.org/2000/svg"><defs>
        <clipPath id="a">
            <path d="M0 0h20v20H0z"/>
        </clipPath>
    </defs><symbol id="icon-arrow" viewBox="0 0 3 6">
    <path d="M.338.062A.187.187 0 0 0 .198 0a.187.187 0 0 0-.14.062.223.223 0 0 0 0 .3L2.518 3 .058 5.638a.223.223 0 0 0 0 .3.189.189 0 0 0 .28 0L2.942 3.15a.223.223 0 0 0 0-.3L.338.062z"/>
</symbol><symbol id="icon-calc" viewBox="0 0 20 20">
    <g clip-path="url(#a)">
        <path d="M10.37 20H20v-9.63h-9.63V20zm2.223-6.296h5.185a.37.37 0 0 1 0 .74h-5.185a.37.37 0 1 1 0-.74zm0 2.222h5.185a.37.37 0 0 1 0 .74h-5.185a.37.37 0 0 1 0-.74z"/>
        <path d="M0 20h9.63v-9.63H0V20zm2.72-6.386a.37.37 0 1 1 .523-.524l1.572 1.571 1.571-1.571a.37.37 0 1 1 .524.524L5.34 15.185l1.571 1.572a.37.37 0 1 1-.524.523L4.815 15.71 3.243 17.28a.37.37 0 1 1-.523-.523l1.571-1.572-1.571-1.571z"/>
        <path d="M20 0h-9.63v9.63H20V0zm-2.222 5.185h-5.185a.37.37 0 1 1 0-.74h5.185a.37.37 0 0 1 0 .74z"/>
        <path d="M9.63 0H0v9.63h9.63V0zM7.407 5.185H5.185v2.222a.37.37 0 0 1-.74 0V5.185H2.221a.37.37 0 0 1 0-.74h2.222V2.221a.37.37 0 0 1 .741 0v2.222h2.222a.37.37 0 0 1 0 .741z"/>
    </g>
    
</symbol><symbol id="icon-document" viewBox="0 0 48 60">
    <path d="M43 14.586V0H0v55h5v5h43V19.586l-5-5zm-9-6.172l9 9L44.586 19H34V8.414zM2 53V2h39v10.586L33.414 5H5v48H2zm5 5V7h25v14h14v37H7z"/>
</symbol><symbol id="icon-facebook" viewBox="0 0 8 15">
    <path d="M5.156 14.908V8.559h2.13l.32-2.474h-2.45v-1.58c0-.716.198-1.205 1.226-1.205h1.31V1.086A17.756 17.756 0 0 0 5.783.99c-1.889 0-3.182 1.153-3.182 3.27v1.825H.465v2.474H2.6v6.349h2.555z"/>
</symbol><symbol id="icon-linkedin" viewBox="0 0 13 14">
    <path d="M1.807.763a1.49 1.49 0 1 0 0 2.979 1.49 1.49 0 0 0 0-2.98z"/>
    <path d="M3.09 4.87H.522v8.264H3.09V4.871z"/>
    <path d="M9.629 4.665c-1.25 0-2.087.685-2.43 1.335h-.035V4.87H4.701v8.264h2.566V9.046c0-1.078.205-2.122 1.541-2.122 1.317 0 1.335 1.233 1.335 2.191v4.019h2.566V8.6c0-2.224-.48-3.936-3.08-3.936z"/>
</symbol><symbol id="icon-mark" viewBox="0 0 13 17">
    <path d="M6.5 0A6.382 6.382 0 0 0 .125 6.375c0 4.703 5.882 10.293 6.132 10.529a.355.355 0 0 0 .486 0c.25-.236 6.132-5.826 6.132-10.529A6.382 6.382 0 0 0 6.5 0zm0 9.917a3.546 3.546 0 0 1-3.542-3.542A3.546 3.546 0 0 1 6.5 2.833a3.546 3.546 0 0 1 3.542 3.542A3.546 3.546 0 0 1 6.5 9.917z"/>
</symbol><symbol id="icon-phone" viewBox="0 0 12 12">
    <path d="M11.037 7.877a6.813 6.813 0 0 1-2.14-.341c-.335-.114-.746-.01-.95.2l-1.35 1.019C5.032 7.92 4.068 6.956 3.244 5.403l.99-1.314a.97.97 0 0 0 .238-.983A6.824 6.824 0 0 1 4.13.963.964.964 0 0 0 3.167 0H.963A.964.964 0 0 0 0 .963C0 7.049 4.951 12 11.037 12c.531 0 .963-.432.963-.963V8.84a.964.964 0 0 0-.963-.962z"/>
</symbol><symbol id="icon-services-1" viewBox="0 0 27 27">
    <path d="M26.375 3.386a.548.548 0 0 0-.521-.026l-4.289 2.02a4.66 4.66 0 0 0-2.66 3.846l-.11 1.37-2.222 3.69v-1.575l-.002-.015a.55.55 0 0 0-.027-.16L15.51 9.434l2.112-4.22a.553.553 0 0 0-.056-.58L14.247.21a.573.573 0 0 0-.885 0l-3.319 4.425a.554.554 0 0 0-.052.58l2.11 4.22-1.033 3.102a.55.55 0 0 0-.027.16v2.222l-3.446-5.23c-.004-.007-.01-.01-.015-.015a.56.56 0 0 0-.118-.121c-.011-.008-.02-.017-.032-.024l-.02-.015L5.384 8.34 4.54 7.063 3.324 5.215a.553.553 0 0 0-.645-.217l-2.153.755a.553.553 0 0 0-.276.826l1.522 2.31.839 1.277.276 2.327a.547.547 0 0 0 .08.223c.004.005.004.012.008.018.004.005 8.226 12.468 8.266 12.501a2.739 2.739 0 0 0 3.23 1.683 2.748 2.748 0 0 0 1.703-1.257l7.358-12.205 1.161-.735a4.693 4.693 0 0 0 1.497-1.53 4.646 4.646 0 0 0 .664-2.617l-.216-4.736a.553.553 0 0 0-.263-.452zm-4.006 9.858l-.856 1.42-2.843-1.714.857-1.421 2.842 1.715zm-10.221 8.382v-8.362h3.319v2.857l-3.32 5.505zM13.1 9.945h1.415l.737 2.212h-2.89l.738-2.212zm.707-3.873a.553.553 0 1 1 0-1.106.553.553 0 0 1 0 1.106zm0-4.61l2.672 3.562-1.907 3.814h-.212v-1.76a1.66 1.66 0 1 0-1.106 0v1.76h-.211l-1.907-3.814 2.671-3.561zm-7.726 8.56l-.162.108-2.038 1.342-.187-1.568a.552.552 0 0 0-.088-.238l-.608-.924.924-.608.608.923c.048.072.11.132.185.175l1.366.79zM2.638 6.184l.675 1.025-.924.609-.83-1.256 1.079-.378zM5.59 11.67l1.383-.913 4.068 6.171v6.034L4.204 12.584l1.386-.914zm9.639 13.417a1.66 1.66 0 1 1-2.842-1.715l4.177-6.928h.01v-.014l1.525-2.531 1.421.858 1.423.855-5.715 9.475zm10.016-14.47c-.285.471-.676.87-1.14 1.166l-.983.622-1.605-.966-1.604-.966.091-1.161a3.553 3.553 0 0 1 2.028-2.932l3.54-1.667.07 1.542a.548.548 0 0 0-.165.007l-1.34.332a3.367 3.367 0 0 0-2.49 2.545.553.553 0 1 0 1.08.242A2.268 2.268 0 0 1 24.4 7.669l1.292-.32.058 1.272c.033.7-.143 1.395-.506 1.996z"/>
</symbol><symbol id="icon-services-2" viewBox="0 0 30 26">
    <path d="M26.9 1.319c-2.8-.65-6.85-.8-9.65-.25l-.45.1c-.65.1-1.3.25-1.95.35l-.941.15H13.9l-2.5.4a2.202 2.202 0 0 0-1.844 1.7H7.5c-1.1 0-2 .9-2 2h-5c-.3 0-.5.2-.5.5s.2.5.5.5h5c0 1.1.9 2 2 2h2.056c.097.423.314.805.617 1.1.332.328.77.562 1.277.65l4.95.75c.912.236 2.053.381 3.267.45l.833 3.75c.05.25.25.4.5.4h1v3.2l-2.765 2.764a.455.455 0 0 0-.226.332.425.425 0 0 0-.01.131v1.973c0 .55.45 1 1 1h7.5c.55 0 1-.45 1-1v-2a.511.511 0 0 0-.11-.333l-.89-2.667v-4l-.272-4.147C28.855 10.565 30 9.005 30 7.27v-2c0-1.85-1.25-3.45-3.1-3.95zm-15.3 1.75l1.9-.303V9.81l-1.95-.292c-.6-.1-1.05-.65-1.05-1.25v-4c0-.6.45-1.15 1.1-1.2zm-5.1 3.7v-1c0-.55.45-1 1-1h2v3h-2c-.55 0-1-.45-1-1zm20 8.5v3.5H23v-7.042a24.98 24.98 0 0 0 3.252-.373l.248 3.915zm-5.1-.4l-.65-3H22v3h-.6zm1.3 4.9h3.95l.65 2h-6.6l2-2zm4.8 4.5H20v-1.5h7.5v1.5zm1.45-17c0 1.4-.95 2.6-2.35 2.95-2.8.7-7.3.75-10.05.05L14.5 9.96V2.607l.55-.088c.65-.1 1.35-.2 2-.35l.45-.1c1.1-.2 2.4-.3 3.8-.3 1.9 0 3.9.15 5.35.55 1.35.35 2.3 1.55 2.3 2.95v2z"/>
</symbol><symbol id="icon-services-3" viewBox="0 0 26 26">
    <path d="M25.637 3.687L22.313.363a1.243 1.243 0 0 0-1.756 0l-6.259 6.258a.401.401 0 0 0 .568.568L21.124.931a.436.436 0 0 1 .621 0l3.325 3.324a.436.436 0 0 1 0 .62l-.816.816-2.138-2.137a.401.401 0 0 0-.567.568l2.137 2.137-.932.932-.94-.94a.401.401 0 1 0-.567.568l.94.94-.932.931-.94-.939a.401.401 0 0 0-.567.568l.94.939-.933.932-2.137-2.137a.401.401 0 0 0-.568.567l2.138 2.137-.932.932-.94-.939a.401.401 0 0 0-.567.568l.94.939-.79.788L12.956 9.1l.733-.734a.401.401 0 0 0-.567-.567l-.734.734L4.985 1.13A2.708 2.708 0 0 0 3.058.332c-.729 0-1.413.284-1.928.799a2.708 2.708 0 0 0-.798 1.927c0 .728.283 1.413.798 1.927l7.402 7.402-8.168 8.17a1.243 1.243 0 0 0 0 1.755l3.324 3.324c.234.235.546.364.878.364.332 0 .643-.13.878-.364l8.169-8.168.581.581a.401.401 0 0 0 .568-.567l-.803-.803a.4.4 0 0 0-.125-.125L5.139 7.859l1.076-1.076.665.665a.4.4 0 0 0 .568 0 .401.401 0 0 0 0-.567l-.665-.666L7.859 5.14l4.244 4.245h.001l4.473 4.473a.378.378 0 0 0 .078.08l5.955 5.954-1.076 1.076-6.008-6.008-.01-.012-2.397-2.396-.012-.011-4.232-4.232a.401.401 0 0 0-.568.567l12.66 12.66-1.077 1.076-3.813-3.814a.401.401 0 0 0-.568.568l4.098 4.097c.039.039.087.07.138.09l4.849 1.883a.651.651 0 0 0 .842-.843l-1.884-4.846a.405.405 0 0 0-.09-.139l-5.995-5.994 8.17-8.17a1.243 1.243 0 0 0 0-1.756zM13.045 16.9l-.787.788-.94-.94a.401.401 0 0 0-.567.568l.94.94-.933.931-2.137-2.137a.401.401 0 0 0-.568.567l2.138 2.138-.932.932-.94-.94a.401.401 0 0 0-.567.568l.94.939-.933.932-.939-.94a.401.401 0 0 0-.568.568l.94.94-.932.931-2.138-2.137a.401.401 0 0 0-.567.568l2.137 2.137-.815.816a.436.436 0 0 1-.622 0L.931 21.745a.44.44 0 0 1 0-.621L9.1 12.955l3.945 3.945zM1.698 4.418c-.75-.75-.75-1.97 0-2.72.75-.75 1.97-.75 2.72 0l1.268 1.268-2.72 2.72-1.268-1.268zM5.932 5.93H5.93l-1.36 1.36-1.038-1.037 2.72-2.72 1.038 1.038-1.36 1.36zm18.631 18.63l-3.954-1.534 2.418-2.417 1.536 3.952z"/>
</symbol><symbol id="icon-services-4" viewBox="0 0 24 26">
    <path d="M21.653 2.771h-.436a1.415 1.415 0 0 0-1.318-.905h-.497a5.26 5.26 0 0 0-.275-.756A1.892 1.892 0 0 0 17.407 0H2.509c-.74 0-1.416.436-1.72 1.11a5.263 5.263 0 0 0 0 4.338c.127.282.32.523.555.707v6.083a1.83 1.83 0 0 0 1.828 1.828A1.83 1.83 0 0 0 5 12.238V9.67a.743.743 0 0 1 1.484 0v.495c0 .892.725 1.617 1.617 1.617.891 0 1.616-.725 1.616-1.617V8.778c0-.23.187-.417.417-.417h1.868c.9 0 1.63-.731 1.63-1.63v-.173h3.774c.74 0 1.416-.436 1.72-1.11.112-.246.204-.5.276-.756h.497c.6 0 1.114-.376 1.318-.905h.436c.566 0 1.026.46 1.026 1.026v2.254c0 .545-.406 1.016-.946 1.096l-8.617 1.269a3.061 3.061 0 0 0-2.615 3.027v2.402a.5.5 0 0 0 .013.11.976.976 0 0 0-.974.975v1.215a.721.721 0 0 0-.624.714v6.057A2.07 2.07 0 0 0 10.984 26a2.07 2.07 0 0 0 2.068-2.068v-6.057a.722.722 0 0 0-.624-.714v-1.215c0-.52-.41-.947-.923-.974a.506.506 0 0 0 .012-.111v-2.402c0-1.006.751-1.876 1.747-2.022l8.617-1.27a2.135 2.135 0 0 0 1.814-2.1V4.813a2.044 2.044 0 0 0-2.042-2.042zm-9.036 3.96a.615.615 0 0 1-.615.615h-1.868c-.79 0-1.432.642-1.432 1.432v1.386a.602.602 0 0 1-1.202 0V9.67a1.76 1.76 0 0 0-1.758-1.758A1.76 1.76 0 0 0 3.984 9.67v2.57a.814.814 0 0 1-1.625 0V6.551l.037.003h.021l.014.001h.017l.006.001H2.491l.018.001h10.108v.173zm4.79-1.189H2.464l-.007-.001H2.45l-.01-.001h-.003a1.017 1.017 0 0 1-.05-.006h-.002a.247.247 0 0 1-.01-.002h-.004l-.01-.002h-.004a.157.157 0 0 0-.014-.004c-.003 0-.007 0-.01-.002a.406.406 0 0 1-.014-.002l-.002-.001-.012-.003h-.003l-.013-.004a.875.875 0 0 1-.577-.485 4.244 4.244 0 0 1-.377-1.704h5.111a.508.508 0 0 0 0-1.015H1.448a4.24 4.24 0 0 1 .265-.781.874.874 0 0 1 .796-.513h14.898c.342 0 .654.201.795.513a4.248 4.248 0 0 1 0 3.5.874.874 0 0 1-.795.513zm2.492-1.866h-.319c.02-.264.02-.53 0-.794h.32a.397.397 0 0 1 0 .794zm-8.487 13.478h-.857v-1.168h.857v1.168zm.624 6.778a1.053 1.053 0 0 1-2.105 0V18.17h2.105v5.762z"/>
</symbol><symbol id="icon-services-5" viewBox="0 0 26 26">
    <path d="M25.637 3.687L22.313.363a1.243 1.243 0 0 0-1.756 0l-6.259 6.258a.401.401 0 0 0 .568.568L21.124.931a.436.436 0 0 1 .621 0l3.325 3.324a.436.436 0 0 1 0 .62l-.816.816-2.138-2.137a.401.401 0 0 0-.567.568l2.137 2.137-.932.932-.94-.94a.401.401 0 1 0-.567.568l.94.94-.932.931-.94-.939a.401.401 0 0 0-.567.568l.94.939-.933.932-2.137-2.137a.401.401 0 0 0-.568.567l2.138 2.137-.932.932-.94-.939a.401.401 0 0 0-.567.568l.94.939-.79.788L12.956 9.1l.733-.734a.401.401 0 0 0-.567-.567l-.734.734L4.985 1.13A2.708 2.708 0 0 0 3.058.332c-.729 0-1.413.284-1.928.799a2.708 2.708 0 0 0-.798 1.927c0 .728.283 1.413.798 1.927l7.402 7.402-8.168 8.17a1.243 1.243 0 0 0 0 1.755l3.324 3.324c.234.235.546.364.878.364.332 0 .643-.13.878-.364l8.169-8.168.581.581a.401.401 0 0 0 .568-.567l-.803-.803a.4.4 0 0 0-.125-.125L5.139 7.859l1.076-1.076.665.665a.4.4 0 0 0 .568 0 .401.401 0 0 0 0-.567l-.665-.666L7.859 5.14l4.244 4.245h.001l4.473 4.473a.378.378 0 0 0 .078.08l5.955 5.954-1.076 1.076-6.008-6.008-.01-.012-2.397-2.396-.012-.011-4.232-4.232a.401.401 0 0 0-.568.567l12.66 12.66-1.077 1.076-3.813-3.814a.401.401 0 0 0-.568.568l4.098 4.097c.039.039.087.07.138.09l4.849 1.883a.651.651 0 0 0 .842-.843l-1.884-4.846a.405.405 0 0 0-.09-.139l-5.995-5.994 8.17-8.17a1.243 1.243 0 0 0 0-1.756zM13.045 16.9l-.787.788-.94-.94a.401.401 0 0 0-.567.568l.94.94-.933.931-2.137-2.137a.401.401 0 0 0-.568.567l2.138 2.138-.932.932-.94-.94a.401.401 0 0 0-.567.568l.94.939-.933.932-.939-.94a.401.401 0 0 0-.568.568l.94.94-.932.931-2.138-2.137a.401.401 0 0 0-.567.568l2.137 2.137-.815.816a.436.436 0 0 1-.622 0L.931 21.745a.44.44 0 0 1 0-.621L9.1 12.955l3.945 3.945zM1.698 4.418c-.75-.75-.75-1.97 0-2.72.75-.75 1.97-.75 2.72 0l1.268 1.268-2.72 2.72-1.268-1.268zM5.932 5.93H5.93l-1.36 1.36-1.038-1.037 2.72-2.72 1.038 1.038-1.36 1.36zm18.631 18.63l-3.954-1.534 2.418-2.417 1.536 3.952z"/>
</symbol><symbol id="icon-services-6" viewBox="0 0 31 31">
    <g>
        <path d="M15.547 31a.494.494 0 0 1-.294-.097L.383 19.88a.495.495 0 0 1 .016-.806l1.75-1.199a.496.496 0 0 1 .56.817L1.53 19.5l14.016 10.39L29.575 19.49l-1.16-.828a.495.495 0 0 1 .576-.806l1.713 1.224a.495.495 0 0 1 .007.8l-14.87 11.021a.491.491 0 0 1-.294.098z"/>
        <path d="M15.547 28.505a.494.494 0 0 1-.294-.098L.383 17.386a.496.496 0 0 1 .016-.807l1.621-1.11a.496.496 0 0 1 .56.817l-1.049.718 14.016 10.39 14.029-10.399-.998-.713a.495.495 0 1 1 .575-.805l1.552 1.108a.494.494 0 0 1 .007.8l-14.87 11.022a.495.495 0 0 1-.295.098z"/>
        <path d="M25.021 11.134c-.1 0-.2-.03-.287-.093l-4.969-3.549a.495.495 0 1 1 .575-.805l4.97 3.55a.495.495 0 0 1-.289.897z"/>
        <path d="M10.485 22.257a.493.493 0 0 1-.294-.097l-4.88-3.618a.496.496 0 0 1 .59-.795l4.88 3.617a.496.496 0 0 1-.296.893z"/>
        <path d="M12.62 13.273a.49.49 0 0 1-.132-.018l-6.723-1.86a.494.494 0 0 1-.148-.885l9.963-6.824a.495.495 0 0 1 .568.006l4.192 2.995a.495.495 0 0 1 .014.796l-7.433 5.688a.498.498 0 0 1-.301.102zm-5.565-2.548l5.46 1.51 6.706-5.131-3.367-2.405-8.799 6.026z"/>
        <path d="M5.605 18.64a.494.494 0 0 1-.294-.098L.384 14.89a.496.496 0 0 1 .015-.806l5.218-3.574a.496.496 0 0 1 .56.817L1.53 14.508l4.07 3.017 6.718-5.14a.495.495 0 0 1 .602.786l-7.015 5.367a.494.494 0 0 1-.3.102z"/>
        <path d="M15.547 26.009a.494.494 0 0 1-.294-.097L10.19 22.16a.497.497 0 0 1-.006-.791l7.049-5.394a.494.494 0 0 1 .788.306l1.207 6.778a.495.495 0 0 1-.192.485l-3.195 2.368a.495.495 0 0 1-.295.097zm-4.238-4.254l4.238 3.142 2.654-1.966-1.012-5.676-5.88 4.5z"/>
        <path d="M18.742 23.641a.495.495 0 0 1-.295-.893L29.575 14.5l-4.543-3.246-7.197 5.508a.494.494 0 1 1-.601-.786l7.487-5.73a.493.493 0 0 1 .589-.01l5.395 3.854a.494.494 0 0 1 .007.8l-11.675 8.654a.493.493 0 0 1-.295.097z"/>
        <path d="M12.975 3.69a.494.494 0 0 1-.35-.145l-1.568-1.567a.495.495 0 1 1 .7-.7l1.568 1.567a.495.495 0 0 1-.35.845z"/>
        <path d="M18.744 3.69a.494.494 0 0 1-.35-.845l1.568-1.567a.494.494 0 1 1 .7.7l-1.568 1.567a.493.493 0 0 1-.35.145z"/>
        <path d="M15.433 2.97a.495.495 0 0 1-.495-.495V.495a.495.495 0 1 1 .99 0v1.98a.494.494 0 0 1-.495.495z"/>
    </g>
</symbol><symbol id="icon-twitter" viewBox="0 0 14 12">
    <path d="M11.903 3.408c.005.11.008.22.008.33 0 3.378-2.571 7.272-7.273 7.272A7.229 7.229 0 0 1 .72 9.862c.2.023.404.035.61.035 1.198 0 2.3-.407 3.173-1.093a2.558 2.558 0 0 1-2.386-1.776 2.521 2.521 0 0 0 1.154-.043 2.558 2.558 0 0 1-2.05-2.506v-.032c.345.192.738.306 1.158.32a2.555 2.555 0 0 1-.791-3.413 7.255 7.255 0 0 0 5.267 2.67 2.555 2.555 0 0 1 4.354-2.331 5.127 5.127 0 0 0 1.624-.62 2.56 2.56 0 0 1-1.124 1.413 5.088 5.088 0 0 0 1.468-.401 5.188 5.188 0 0 1-1.274 1.323z"/>
</symbol></svg>